<?xml version="1.0" encoding="UTF-8" standalone="no"?>
<svg xmlns="http://www.w3.org/2000/svg" height="480" width="640" viewBox="0 0 640 480">
  <defs>
    <clipPath id="a">
      <path fill-opacity=".67" d="M0 0h640v480H0z"/>
    </clipPath>
  </defs>
  <g clip-path="url(#a)">
    <path fill="#fff" d="M0 0h640v480H0z"/>
    <path fill-rule="evenodd" fill="#fff" d="M92.462 0h477.19v480H92.462z"/>
    <path fill-rule="evenodd" fill="#db0000" d="M323.07 3.655h358v221.68h-358z"/>
    <path fill-rule="evenodd" fill="#0000ab" d="M3.227 225.33h319.87v254.66H3.227zM214.8 177.65l-41.959-29.326-41.754 29.614 15.529-48.124-41.677-29.716 51.562-.414 15.993-47.978 16.335 47.867 51.562.063-41.463 29.996 15.872 48.017z"/>
    <path d="M516.85 413.89l-42.354-27.744-42.146 28.017 15.675-45.529-42.069-28.114 52.047-.392 16.143-45.391 16.489 45.286 52.047.06-41.853 28.379 16.021 45.428z" fill-rule="evenodd" fill="#d80000"/>
  </g>

	
	<metadata>
		<rdf:RDF xmlns:rdf="http://www.w3.org/1999/02/22-rdf-syntax-ns#" xmlns:rdfs="http://www.w3.org/2000/01/rdf-schema#" xmlns:dc="http://purl.org/dc/elements/1.1/">
			<rdf:Description about="https://iconscout.com/legal#licenses" dc:title="Panama, Flag, Country, Nation, Union, Empire" dc:description="Panama, Flag, Country, Nation, Union, Empire" dc:publisher="Iconscout" dc:date="2016-12-14" dc:format="image/svg+xml" dc:language="en">
				<dc:creator>
					<rdf:Bag>
						<rdf:li>Iconscout Store</rdf:li>
					</rdf:Bag>
				</dc:creator>
			</rdf:Description>
		</rdf:RDF>
    </metadata></svg>
