<?xml version="1.0" encoding="UTF-8" standalone="no"?>
<svg xmlns="http://www.w3.org/2000/svg" height="480" width="640" viewBox="0 0 640 480">
  <defs>
    <clipPath id="a">
      <path fill-opacity=".67" d="M0 0h640v480H0z"/>
    </clipPath>
  </defs>
  <g fill-rule="evenodd" clip-path="url(#a)">
    <path fill="#fff" d="M-20 0h720v480H-20z"/>
    <path fill="#df0000" d="M-20 0h720v240H-20z"/>
    <path d="M146.05 40.227c-33.243 7.622-57.944 32.237-64.927 65.701-9.488 45.469 20.124 89.99 65.687 99.488-46.031 13.125-93.59-13.332-106.594-58.932-12.996-45.6 13.46-93.16 59.063-106.162 16.007-4.565 30.745-4.594 46.773-.095z" fill="#fff"/>
    <path fill="#fff" d="M132.98 109.953l4.894 15.119-12.932-9.23-12.87 9.317 4.783-15.144-12.833-9.354 15.876-.137 4.932-15.106 5.031 15.069 15.889.025zM150.539 162.012l4.894 15.119-12.932-9.23-12.87 9.317 4.783-15.143-12.833-9.355 15.877-.137 4.931-15.106 5.032 15.07 15.888.024zM208.964 161.637l4.894 15.119-12.932-9.23-12.87 9.317 4.783-15.143-12.833-9.355 15.877-.137 4.931-15.106 5.032 15.07 15.888.024zM226.392 110l4.894 15.118-12.932-9.23-12.87 9.317 4.783-15.143-12.833-9.354 15.877-.137 4.932-15.106 5.03 15.069 15.89.025zM180.136 75.744l4.894 15.118-12.932-9.23-12.87 9.317 4.783-15.143-12.833-9.355 15.876-.136 4.932-15.106 5.032 15.068 15.888.025z"/>
  </g>

	
	<metadata>
		<rdf:RDF xmlns:rdf="http://www.w3.org/1999/02/22-rdf-syntax-ns#" xmlns:rdfs="http://www.w3.org/2000/01/rdf-schema#" xmlns:dc="http://purl.org/dc/elements/1.1/">
			<rdf:Description about="https://iconscout.com/legal#licenses" dc:title="Singapore, Flag, Country, Nation, Union, Empire" dc:description="Singapore, Flag, Country, Nation, Union, Empire" dc:publisher="Iconscout" dc:date="2016-12-14" dc:format="image/svg+xml" dc:language="en">
				<dc:creator>
					<rdf:Bag>
						<rdf:li>Iconscout Store</rdf:li>
					</rdf:Bag>
				</dc:creator>
			</rdf:Description>
		</rdf:RDF>
    </metadata></svg>
