<?xml version="1.0" encoding="UTF-8" standalone="no"?>
<svg xmlns="http://www.w3.org/2000/svg" height="480" width="640" viewBox="0 0 640 480">
  <rect y="160" width="640" height="160" ry="0" rx="0" fill="#fff" fill-rule="evenodd"/>
  <rect y="320" width="640" height="160" ry="0" rx="0" fill-rule="evenodd"/>
  <path d="M0 0h640v160H0z" fill="red" fill-rule="evenodd"/>
  <path d="M201.9 281l-28.822-20.867-28.68 21.072 10.667-34.242-28.628-21.145 35.418-.295 10.985-34.138 11.221 34.06 35.418.045-28.481 21.344L201.9 281zm307.64 0l-28.822-20.867-28.68 21.072 10.667-34.242-28.628-21.145 35.418-.295 10.985-34.138 11.221 34.06 35.418.045-28.481 21.344L509.54 281z" fill="#090" fill-rule="evenodd"/>

	
	<metadata>
		<rdf:RDF xmlns:rdf="http://www.w3.org/1999/02/22-rdf-syntax-ns#" xmlns:rdfs="http://www.w3.org/2000/01/rdf-schema#" xmlns:dc="http://purl.org/dc/elements/1.1/">
			<rdf:Description about="https://iconscout.com/legal#licenses" dc:title="Syrian, Arab, Republic, Flag, Country, Nation, Union, Empire" dc:description="Syrian, Arab, Republic, Flag, Country, Nation, Union, Empire" dc:publisher="Iconscout" dc:date="2016-12-14" dc:format="image/svg+xml" dc:language="en">
				<dc:creator>
					<rdf:Bag>
						<rdf:li>Iconscout Store</rdf:li>
					</rdf:Bag>
				</dc:creator>
			</rdf:Description>
		</rdf:RDF>
    </metadata></svg>
