<?xml version="1.0" encoding="UTF-8" standalone="no"?>
<svg xmlns="http://www.w3.org/2000/svg" height="480" width="640" viewBox="0 0 640 480">
  <defs>
    <clipPath id="a">
      <path fill-opacity=".67" d="M0 0h682.67v512H0z"/>
    </clipPath>
  </defs>
  <g clip-path="url(#a)" fill-rule="evenodd" transform="scale(.9375)">
    <path fill="#ffe300" d="M0 0h767.63v512H0z"/>
    <path fill="#118600" d="M0 208.14h767.63v102.81H0zM0 .248h767.63v102.81H0z"/>
    <path fill="#d80000" d="M0 .248h306.51v310.71H0z"/>
    <path d="M134.42 128.43c0-.856 18.836-53.083 18.836-53.083l17.124 52.227s57.365 1.713 57.365.856-45.378 34.248-45.378 34.248 21.404 59.933 20.549 58.221c-.856-1.712-49.659-35.96-49.659-35.96s-49.658 34.248-48.802 34.248c.856 0 18.835-56.508 18.835-56.508l-44.522-33.392 55.652-.856z" fill="#fff"/>
    <path fill="#118600" d="M0 409.19h767.63V512H0z"/>
  </g>

	
	<metadata>
		<rdf:RDF xmlns:rdf="http://www.w3.org/1999/02/22-rdf-syntax-ns#" xmlns:rdfs="http://www.w3.org/2000/01/rdf-schema#" xmlns:dc="http://purl.org/dc/elements/1.1/">
			<rdf:Description about="https://iconscout.com/legal#licenses" dc:title="Togo, Flag, Country, Nation, Union, Empire" dc:description="Togo, Flag, Country, Nation, Union, Empire" dc:publisher="Iconscout" dc:date="2016-12-14" dc:format="image/svg+xml" dc:language="en">
				<dc:creator>
					<rdf:Bag>
						<rdf:li>Iconscout Store</rdf:li>
					</rdf:Bag>
				</dc:creator>
			</rdf:Description>
		</rdf:RDF>
    </metadata></svg>
